<mxfile host="app.diagrams.net" modified="2023-11-06T06:24:06.699Z" agent="Mozilla/5.0 (Windows NT 10.0; Win64; x64; rv:109.0) Gecko/20100101 Firefox/119.0" etag="44omVq7J0cOIpoSCN9zJ" version="22.0.8" type="device">
  <diagram name="Page-1" id="nxaZaKs9h91ab7KsYcNP">
    <mxGraphModel dx="1075" dy="714" grid="0" gridSize="10" guides="1" tooltips="1" connect="1" arrows="1" fold="1" page="1" pageScale="1" pageWidth="700" pageHeight="1000" math="0" shadow="0">
      <root>
        <mxCell id="0" />
        <mxCell id="1" parent="0" />
        <mxCell id="KvgvEyvhpmmz-9pyGIQr-7" style="rounded=0;orthogonalLoop=1;jettySize=auto;html=1;entryX=0;entryY=0.5;entryDx=0;entryDy=0;endArrow=none;endFill=0;" edge="1" parent="1" source="KvgvEyvhpmmz-9pyGIQr-2" target="KvgvEyvhpmmz-9pyGIQr-3">
          <mxGeometry relative="1" as="geometry" />
        </mxCell>
        <mxCell id="KvgvEyvhpmmz-9pyGIQr-9" style="rounded=0;orthogonalLoop=1;jettySize=auto;html=1;endArrow=none;endFill=0;" edge="1" parent="1" source="KvgvEyvhpmmz-9pyGIQr-2" target="KvgvEyvhpmmz-9pyGIQr-8">
          <mxGeometry relative="1" as="geometry" />
        </mxCell>
        <mxCell id="KvgvEyvhpmmz-9pyGIQr-2" value="UsuÃ¡rio" style="shape=umlActor;verticalLabelPosition=bottom;verticalAlign=top;html=1;outlineConnect=0;" vertex="1" parent="1">
          <mxGeometry x="205" y="310" width="30" height="60" as="geometry" />
        </mxCell>
        <mxCell id="KvgvEyvhpmmz-9pyGIQr-10" value="" style="whiteSpace=wrap;html=1;fillColor=none;" vertex="1" parent="1">
          <mxGeometry x="315" y="230" width="190" height="540" as="geometry" />
        </mxCell>
        <mxCell id="KvgvEyvhpmmz-9pyGIQr-3" value="&lt;div&gt;Fazer&amp;nbsp;&lt;/div&gt;&lt;div&gt;pedido&lt;/div&gt;" style="ellipse;whiteSpace=wrap;html=1;" vertex="1" parent="1">
          <mxGeometry x="365" y="250" width="100" height="60" as="geometry" />
        </mxCell>
        <mxCell id="KvgvEyvhpmmz-9pyGIQr-12" style="rounded=0;orthogonalLoop=1;jettySize=auto;html=1;entryX=0;entryY=0.5;entryDx=0;entryDy=0;endArrow=none;endFill=0;" edge="1" parent="1" source="KvgvEyvhpmmz-9pyGIQr-4" target="KvgvEyvhpmmz-9pyGIQr-11">
          <mxGeometry relative="1" as="geometry" />
        </mxCell>
        <mxCell id="KvgvEyvhpmmz-9pyGIQr-14" style="rounded=0;orthogonalLoop=1;jettySize=auto;html=1;entryX=0;entryY=0.5;entryDx=0;entryDy=0;endArrow=none;endFill=0;" edge="1" parent="1" source="KvgvEyvhpmmz-9pyGIQr-4" target="KvgvEyvhpmmz-9pyGIQr-13">
          <mxGeometry relative="1" as="geometry" />
        </mxCell>
        <mxCell id="KvgvEyvhpmmz-9pyGIQr-16" style="rounded=0;orthogonalLoop=1;jettySize=auto;html=1;entryX=0;entryY=0.5;entryDx=0;entryDy=0;endArrow=none;endFill=0;" edge="1" parent="1" source="KvgvEyvhpmmz-9pyGIQr-4" target="KvgvEyvhpmmz-9pyGIQr-15">
          <mxGeometry relative="1" as="geometry" />
        </mxCell>
        <mxCell id="KvgvEyvhpmmz-9pyGIQr-20" style="rounded=0;orthogonalLoop=1;jettySize=auto;html=1;entryX=0;entryY=0.5;entryDx=0;entryDy=0;endArrow=none;endFill=0;" edge="1" parent="1" source="KvgvEyvhpmmz-9pyGIQr-4" target="KvgvEyvhpmmz-9pyGIQr-19">
          <mxGeometry relative="1" as="geometry" />
        </mxCell>
        <mxCell id="KvgvEyvhpmmz-9pyGIQr-4" value="&lt;div&gt;Gerente de&amp;nbsp;&lt;/div&gt;&lt;div&gt;supermercado&lt;/div&gt;&lt;div&gt;&lt;br&gt;&lt;/div&gt;" style="shape=umlActor;verticalLabelPosition=bottom;verticalAlign=top;html=1;outlineConnect=0;" vertex="1" parent="1">
          <mxGeometry x="195" y="560" width="30" height="60" as="geometry" />
        </mxCell>
        <mxCell id="KvgvEyvhpmmz-9pyGIQr-8" value="Acompanhar pedido" style="ellipse;whiteSpace=wrap;html=1;" vertex="1" parent="1">
          <mxGeometry x="365" y="330" width="100" height="60" as="geometry" />
        </mxCell>
        <mxCell id="KvgvEyvhpmmz-9pyGIQr-11" value="Gerenciar unidade" style="ellipse;whiteSpace=wrap;html=1;" vertex="1" parent="1">
          <mxGeometry x="365" y="530" width="100" height="60" as="geometry" />
        </mxCell>
        <mxCell id="KvgvEyvhpmmz-9pyGIQr-13" value="Gerenciar estoque" style="ellipse;whiteSpace=wrap;html=1;" vertex="1" parent="1">
          <mxGeometry x="365" y="610" width="100" height="60" as="geometry" />
        </mxCell>
        <mxCell id="KvgvEyvhpmmz-9pyGIQr-15" value="Aceitar pedido" style="ellipse;whiteSpace=wrap;html=1;" vertex="1" parent="1">
          <mxGeometry x="365" y="690" width="100" height="60" as="geometry" />
        </mxCell>
        <mxCell id="KvgvEyvhpmmz-9pyGIQr-19" value="Fazer login" style="ellipse;whiteSpace=wrap;html=1;" vertex="1" parent="1">
          <mxGeometry x="365" y="450" width="100" height="60" as="geometry" />
        </mxCell>
      </root>
    </mxGraphModel>
  </diagram>
</mxfile>
